<svg width="189" height="281" viewBox="0 0 189 281" fill="none" xmlns="http://www.w3.org/2000/svg">
<path d="M280.889 140.444C280.889 62.879 218.01 0 140.444 0C62.879 0 0 62.879 0 140.444V140.445C0 218.01 62.879 280.889 140.444 280.889C218.01 280.889 280.889 218.01 280.889 140.445V140.444Z" fill="url(#paint0_linear_4_586)"/>
<path d="M254.555 140.444C254.555 77.4226 203.466 26.3333 140.444 26.3333C77.4225 26.3333 26.3333 77.4226 26.3333 140.444C26.3333 203.466 77.4225 254.555 140.444 254.555C203.466 254.555 254.555 203.466 254.555 140.444Z" fill="url(#paint1_linear_4_586)"/>
<path d="M175.415 70.011C196.008 70.013 215.947 77.2481 231.749 90.4532C247.551 103.658 258.213 121.994 261.873 142.26C277.269 145.898 290.987 154.623 300.809 167.024C310.632 179.425 315.984 194.777 316 210.596C316 229.239 308.594 247.118 295.412 260.301C282.229 273.483 264.35 280.889 245.707 280.889H87.5487C80.6255 280.889 73.7701 279.525 67.3739 276.876C60.9777 274.226 55.166 270.343 50.2705 265.448C45.3751 260.552 41.4918 254.741 38.8424 248.344C36.193 241.948 34.8293 235.093 34.8293 228.169C34.8293 221.246 36.193 214.391 38.8424 207.995C41.4918 201.598 45.3751 195.787 50.2705 190.891C55.166 185.996 60.9777 182.112 67.3739 179.463C73.7701 176.813 80.6255 175.45 87.5487 175.45C88.1786 175.474 88.8079 175.509 89.4365 175.556C88.2113 169.743 87.5788 163.821 87.5487 157.88C87.5487 146.341 89.8217 134.915 94.2373 124.255C98.653 113.595 105.125 103.909 113.284 95.7497C121.443 87.5906 131.13 81.1183 141.79 76.7026C152.45 72.2869 163.876 70.0143 175.415 70.0143V70.011Z" fill="url(#paint2_linear_4_586)"/>
<path opacity="0.2" d="M87.7776 153.285C87.6632 154.815 87.5889 156.347 87.5547 157.88C87.5664 160.829 87.7266 163.776 88.0347 166.709C88.5036 166.726 88.9723 166.75 89.4405 166.78C88.5386 162.332 87.9826 157.821 87.7776 153.287V153.285ZM315.794 206.14C314.694 223.988 306.834 240.746 293.814 253.003C280.793 265.259 263.591 272.092 245.709 272.111H87.5547C74.3504 272.107 61.6284 267.148 51.9046 258.215C42.1809 249.281 36.1634 237.024 35.0424 223.867C34.9153 225.298 34.847 226.734 34.8372 228.171C34.8375 242.152 40.3919 255.561 50.2784 265.448C60.1648 275.334 73.5736 280.888 87.5552 280.889H245.709C264.351 280.888 282.23 273.483 295.412 260.301C308.594 247.119 316 229.24 316 210.598C315.979 209.11 315.91 207.624 315.795 206.14H315.794Z" fill="#172525"/>
<defs>
<linearGradient id="paint0_linear_4_586" x1="-2728.63" y1="-7.02257" x2="-2728.63" y2="554.755" gradientUnits="userSpaceOnUse">
<stop stop-color="#F0FF01"/>
<stop offset="1" stop-color="#FF9701"/>
</linearGradient>
<linearGradient id="paint1_linear_4_586" x1="-2602.05" y1="33.046" x2="-2602.05" y2="301.541" gradientUnits="userSpaceOnUse">
<stop stop-color="#FAFFA5"/>
<stop offset="1" stop-color="#EDF573"/>
</linearGradient>
<linearGradient id="paint2_linear_4_586" x1="-3454.68" y1="70.2225" x2="-3454.68" y2="280.888" gradientUnits="userSpaceOnUse">
<stop stop-color="#EFF1F1"/>
<stop offset="1" stop-color="#B0B8B8"/>
</linearGradient>
</defs>
</svg>
